<svg width="97" height="74" viewBox="0 0 97 74" fill="none" xmlns="http://www.w3.org/2000/svg">
<path d="M32.9412 43.0239H24.9629L20.7535 36.7097C20.525 36.7424 20.3048 36.7587 20.0927 36.7587C19.8969 36.7587 19.7011 36.7587 19.5053 36.7587C17.8411 36.7587 16.234 36.5384 14.6841 36.0979C13.1504 35.6737 11.7065 35.07 10.3523 34.2869C9.01438 33.4874 7.79071 32.5329 6.68125 31.4235C5.57178 30.314 4.61732 29.0903 3.81785 27.7525C3.03471 26.3983 2.42287 24.9543 1.98235 23.4207C1.55814 21.8707 1.34604 20.2636 1.34604 18.5994C1.34604 16.9352 1.55814 15.3281 1.98235 13.7781C2.42287 12.2281 3.03471 10.7842 3.81785 9.44633C4.61732 8.10845 5.57178 6.88478 6.68125 5.77532C7.79071 4.66585 9.01438 3.71955 10.3523 2.9364C11.7065 2.15325 13.1504 1.54957 14.6841 1.12536C16.234 0.684842 17.8411 0.464581 19.5053 0.464581C21.1695 0.464581 22.7766 0.684842 24.3266 1.12536C25.8766 1.54957 27.3205 2.15325 28.6584 2.9364C29.9963 3.71955 31.2199 4.66585 32.3294 5.77532C33.4389 6.88478 34.3852 8.10845 35.1683 9.44633C35.9515 10.7842 36.5551 12.2281 36.9794 13.7781C37.4199 15.3281 37.6401 16.9352 37.6401 18.5994C37.6401 20.3288 37.3954 22.0094 36.9059 23.6409C36.4328 25.2725 35.7557 26.798 34.8746 28.2174C33.9936 29.6206 32.9249 30.8932 31.6686 32.0353C30.4286 33.1774 29.0418 34.1319 27.5081 34.8987L32.9412 43.0239ZM30.6652 18.5994C30.6652 17.0657 30.3715 15.6218 29.7842 14.2676C29.1968 12.8971 28.3973 11.7142 27.3858 10.7189C26.3905 9.70738 25.2076 8.90791 23.8371 8.32055C22.4829 7.73319 21.039 7.43951 19.5053 7.43951C17.9553 7.43951 16.5032 7.73319 15.1491 8.32055C13.7949 8.90791 12.612 9.70738 11.6004 10.7189C10.5888 11.7142 9.78937 12.8971 9.20201 14.2676C8.61465 15.6218 8.32097 17.0657 8.32097 18.5994C8.32097 20.1331 8.61465 21.577 9.20201 22.9312C9.78937 24.2691 10.5888 25.4438 11.6004 26.4554C12.612 27.4669 13.7949 28.2664 15.1491 28.8538C16.5032 29.4411 17.9553 29.7348 19.5053 29.7348C21.039 29.7348 22.4829 29.4411 23.8371 28.8538C25.2076 28.2664 26.3905 27.4669 27.3858 26.4554C28.3973 25.4438 29.1968 24.2691 29.7842 22.9312C30.3715 21.577 30.6652 20.1331 30.6652 18.5994ZM21.8058 59.9408C21.2674 60.4303 20.6882 60.8953 20.0682 61.3358C19.4645 61.76 18.8282 62.1353 18.1593 62.4616C17.4903 62.7716 16.7969 63.0163 16.079 63.1958C15.3775 63.3916 14.6596 63.4895 13.9254 63.4895C12.3101 63.4895 10.7928 63.2039 9.37332 62.6329C7.95386 62.0619 6.70572 61.2542 5.62889 60.21C4.56837 59.1495 3.72812 57.8687 3.10813 56.3677C2.50445 54.8503 2.20261 53.1535 2.20261 51.2772V36.789H8.85938V51.2772C8.85938 52.1583 8.98991 52.9496 9.25096 53.6512C9.52832 54.3364 9.89542 54.9156 10.3523 55.3888C10.8091 55.8619 11.3394 56.2209 11.943 56.4656C12.563 56.7103 13.2238 56.8327 13.9254 56.8327C14.6106 56.8327 15.2551 56.6777 15.8588 56.3677C16.4788 56.0414 17.0172 55.6172 17.474 55.0951C17.9309 54.573 18.2898 53.9856 18.5509 53.333C18.8119 52.6641 18.9424 51.9788 18.9424 51.2772V36.789H25.6237V63H24.0084L21.8058 59.9408Z" fill="#FEB00C"/>
<path d="M63.282 36H39.2246V0.905118H63.282V7.92899H46.2484V14.9529H57.7754V21.9767H46.2484V28.9761H63.282V36ZM82.1029 36H66.8315V29.3432H82.1029C82.5597 29.3432 82.9513 29.1801 83.2776 28.8538C83.6039 28.5275 83.7671 28.1359 83.7671 27.679C83.7671 27.2059 83.6039 26.8959 83.2776 26.7491C82.9513 26.6022 82.5597 26.5288 82.1029 26.5288H75.1524C73.994 26.5288 72.909 26.3085 71.8975 25.868C70.8859 25.4275 70.0048 24.832 69.2543 24.0815C68.5038 23.3146 67.9083 22.4254 67.4678 21.4139C67.0436 20.4023 66.8315 19.3173 66.8315 18.1589C66.8315 17.0005 67.0436 15.9155 67.4678 14.9039C67.9083 13.8924 68.5038 13.0113 69.2543 12.2608C70.0048 11.5103 70.8859 10.9229 71.8975 10.4987C72.909 10.0582 73.994 9.83792 75.1524 9.83792H88.6862V16.4947H75.1524C74.6956 16.4947 74.304 16.6578 73.9777 16.9842C73.6514 17.3105 73.4882 17.702 73.4882 18.1589C73.4882 18.632 73.6514 19.0399 73.9777 19.3826C74.304 19.7089 74.6956 19.872 75.1524 19.872H82.1029C83.245 19.872 84.3218 20.0678 85.3334 20.4594C86.3449 20.8346 87.226 21.3649 87.9765 22.0502C88.727 22.7354 89.3225 23.5594 89.7631 24.522C90.2036 25.4846 90.4238 26.537 90.4238 27.679C90.4238 28.8375 90.2036 29.9224 89.7631 30.934C89.3225 31.9293 88.727 32.8103 87.9765 33.5771C87.226 34.3277 86.3449 34.9232 85.3334 35.3637C84.3218 35.7879 83.245 36 82.1029 36ZM63.8938 63H62.2785L59.6844 59.4024C59.048 59.9735 58.3709 60.5119 57.6531 61.0177C56.9515 61.5071 56.2091 61.9395 55.426 62.3148C54.6428 62.6737 53.8352 62.9592 53.0031 63.1713C52.1873 63.3834 51.3552 63.4895 50.5068 63.4895C48.6632 63.4895 46.9255 63.1795 45.294 62.5595C43.6787 61.9395 42.2593 61.0421 41.0356 59.8674C39.8282 58.6764 38.8738 57.2243 38.1722 55.5111C37.4706 53.798 37.1199 51.8483 37.1199 49.662C37.1199 47.6225 37.4706 45.7544 38.1722 44.0576C38.8738 42.3444 39.8282 40.876 41.0356 39.6524C42.2593 38.4287 43.6787 37.4824 45.294 36.8134C46.9255 36.1282 48.6632 35.7856 50.5068 35.7856C51.3552 35.7856 52.1955 35.8916 53.0276 36.1037C53.8597 36.3158 54.6673 36.6095 55.4505 36.9848C56.2336 37.36 56.976 37.8005 57.6775 38.3063C58.3954 38.8121 59.0644 39.3587 59.6844 39.946L62.2785 36.8379H63.8938V63ZM57.1636 49.662C57.1636 48.7483 56.9841 47.8673 56.6252 47.0189C56.2826 46.1541 55.8094 45.3955 55.2057 44.7428C54.602 44.0739 53.8923 43.5436 53.0765 43.1521C52.2771 42.7442 51.4205 42.5402 50.5068 42.5402C49.5931 42.5402 48.7284 42.6952 47.9126 43.0052C47.1132 43.3152 46.4116 43.7721 45.8079 44.3757C45.2206 44.9794 44.7556 45.7299 44.4129 46.6273C44.0703 47.5083 43.899 48.5199 43.899 49.662C43.899 50.8041 44.0703 51.8238 44.4129 52.7212C44.7556 53.6022 45.2206 54.3446 45.8079 54.9483C46.4116 55.5519 47.1132 56.0088 47.9126 56.3188C48.7284 56.6288 49.5931 56.7838 50.5068 56.7838C51.4205 56.7838 52.2771 56.588 53.0765 56.1964C53.8923 55.7885 54.602 55.2583 55.2057 54.6056C55.8094 53.9367 56.2826 53.178 56.6252 52.3296C56.9841 51.4649 57.1636 50.5757 57.1636 49.662ZM75.544 72.9852V66.255L79.264 66.3039C79.9166 66.3039 80.5447 66.1979 81.1484 65.9858C81.7521 65.7737 82.3068 65.48 82.8126 65.1047C83.3347 64.7295 83.7915 64.2808 84.1831 63.7587C84.5747 63.2529 84.8929 62.6982 85.1376 62.0945C84.4034 62.4045 83.6529 62.7145 82.886 63.0245C82.1355 63.3345 81.3768 63.4895 80.61 63.4895C78.9948 63.4895 77.4774 63.204 76.0579 62.6329C74.6385 62.0619 73.3903 61.2542 72.3135 60.21C71.253 59.1495 70.4127 57.8688 69.7927 56.3677C69.1891 54.8504 68.8872 53.1535 68.8872 51.2772V36.789H75.544V51.2772C75.544 52.2072 75.6745 53.023 75.9356 53.7246C76.2129 54.4098 76.58 54.989 77.0369 55.4622C77.4937 55.919 78.024 56.2617 78.6277 56.4901C79.2476 56.7185 79.9084 56.8327 80.61 56.8327C81.2953 56.8327 81.9397 56.6777 82.5434 56.3677C83.1634 56.0414 83.7018 55.6172 84.1586 55.0951C84.6155 54.573 84.9744 53.9856 85.2355 53.333C85.4965 52.6641 85.6271 51.9788 85.6271 51.2772V36.789H92.3572V59.6961C92.3409 61.5398 91.982 63.2692 91.2804 64.8845C90.5788 66.4997 89.6162 67.911 88.3926 69.1184C87.1852 70.3257 85.7739 71.2802 84.1586 71.9818C82.5434 72.6833 80.8139 73.0341 78.9703 73.0341L75.544 72.9852Z" fill="#2B2E3A"/>
</svg>
