<svg width="512" height="512" viewBox="0 0 512 512" fill="none" xmlns="http://www.w3.org/2000/svg">
<rect width="512" height="512" rx="48" fill="#4BC7C9"/>
<path d="M153.921 254.039C149.708 254.039 145.75 253.252 142.047 251.677C138.344 250.06 135.088 247.868 132.279 245.102C129.513 242.293 127.321 239.037 125.704 235.334C124.129 231.632 123.342 227.674 123.342 223.46V203.159H114.851V185.795H123.342V158.472H140.706V185.795H167.136V203.159H140.706V223.46C140.706 225.29 141.047 227.014 141.728 228.631C142.409 230.206 143.345 231.589 144.537 232.781C145.728 233.973 147.133 234.93 148.75 235.654C150.367 236.335 152.091 236.675 153.921 236.675H167.136V254.039H153.921ZM197.888 167.09C197.888 168.708 197.569 170.218 196.93 171.623C196.335 173.027 195.505 174.262 194.441 175.326C193.377 176.347 192.121 177.177 190.674 177.815C189.27 178.411 187.759 178.709 186.142 178.709C184.524 178.709 182.992 178.411 181.545 177.815C180.141 177.177 178.906 176.347 177.842 175.326C176.821 174.262 175.991 173.027 175.353 171.623C174.757 170.218 174.459 168.708 174.459 167.09C174.459 165.516 174.757 164.026 175.353 162.622C175.991 161.174 176.821 159.94 177.842 158.919C178.906 157.855 180.141 157.025 181.545 156.429C182.992 155.791 184.524 155.472 186.142 155.472C187.759 155.472 189.27 155.791 190.674 156.429C192.121 157.025 193.377 157.855 194.441 158.919C195.505 159.94 196.335 161.174 196.93 162.622C197.569 164.026 197.888 165.516 197.888 167.09ZM194.888 254.039H177.332V185.667H194.888V254.039ZM295.544 254.039H278.18V210.629C278.18 209.437 277.946 208.309 277.477 207.245C277.052 206.181 276.435 205.245 275.626 204.436C274.817 203.628 273.881 203.01 272.817 202.585C271.753 202.117 270.625 201.883 269.434 201.883C268.242 201.883 267.114 202.117 266.05 202.585C265.029 203.01 264.114 203.628 263.305 204.436C262.539 205.245 261.922 206.181 261.454 207.245C261.028 208.309 260.815 209.437 260.815 210.629V254.039H243.387V210.629C243.387 209.437 243.153 208.309 242.685 207.245C242.259 206.181 241.642 205.245 240.834 204.436C240.025 203.628 239.089 203.01 238.025 202.585C236.961 202.117 235.833 201.883 234.641 201.883C233.45 201.883 232.322 202.117 231.258 202.585C230.236 203.01 229.321 203.628 228.513 204.436C227.747 205.245 227.129 206.181 226.661 207.245C226.236 208.309 226.023 209.437 226.023 210.629V254.039H208.595V185.667H212.808L217.532 190.902C219.958 188.859 222.618 187.285 225.512 186.178C228.449 185.029 231.492 184.455 234.641 184.455C237.833 184.455 240.94 185.05 243.962 186.242C247.026 187.434 249.707 189.498 252.005 192.434C253.069 190.987 254.282 189.753 255.644 188.732C257.006 187.71 258.432 186.88 259.922 186.242C261.454 185.604 263.028 185.157 264.646 184.901C266.263 184.604 267.859 184.455 269.434 184.455C273.051 184.455 276.435 185.135 279.584 186.497C282.776 187.859 285.542 189.732 287.883 192.115C290.266 194.456 292.139 197.222 293.501 200.414C294.863 203.606 295.544 207.011 295.544 210.629V254.039ZM335.872 237.313C336.553 237.526 337.234 237.675 337.915 237.76C338.596 237.803 339.277 237.824 339.958 237.824C341.66 237.824 343.299 237.59 344.873 237.122C346.448 236.654 347.916 235.994 349.278 235.143C350.683 234.249 351.917 233.185 352.981 231.951C354.088 230.674 354.981 229.27 355.662 227.738L368.43 240.569C366.813 242.867 364.94 244.932 362.812 246.762C360.727 248.592 358.45 250.145 355.981 251.422C353.556 252.699 350.981 253.656 348.257 254.295C345.576 254.976 342.809 255.316 339.958 255.316C335.149 255.316 330.616 254.422 326.36 252.635C322.147 250.847 318.444 248.358 315.252 245.166C312.103 241.974 309.613 238.186 307.783 233.802C305.953 229.376 305.038 224.524 305.038 219.247C305.038 213.842 305.953 208.905 307.783 204.436C309.613 199.967 312.103 196.158 315.252 193.009C318.444 189.86 322.147 187.412 326.36 185.667C330.616 183.923 335.149 183.05 339.958 183.05C342.809 183.05 345.597 183.391 348.321 184.072C351.045 184.752 353.619 185.731 356.045 187.008C358.514 188.285 360.812 189.86 362.94 191.732C365.068 193.562 366.941 195.626 368.558 197.925L335.872 237.313ZM344.81 201.372C344.001 201.074 343.192 200.883 342.384 200.797C341.618 200.712 340.809 200.67 339.958 200.67C337.574 200.67 335.319 201.117 333.191 202.01C331.105 202.862 329.275 204.096 327.701 205.713C326.168 207.33 324.956 209.288 324.062 211.586C323.168 213.842 322.721 216.395 322.721 219.247C322.721 219.885 322.742 220.609 322.785 221.417C322.87 222.226 322.977 223.056 323.104 223.907C323.274 224.716 323.466 225.503 323.679 226.269C323.892 227.035 324.168 227.716 324.509 228.312L344.81 201.372Z" fill="white"/>
<path d="M194.714 352.039H175.116L139.813 291.775V352.039H121.491V260.494H141.089L176.392 320.822V260.494H194.714V352.039ZM236.447 335.313C237.128 335.526 237.809 335.675 238.49 335.76C239.171 335.803 239.852 335.824 240.533 335.824C242.235 335.824 243.874 335.59 245.448 335.122C247.023 334.654 248.491 333.994 249.853 333.143C251.258 332.249 252.492 331.185 253.556 329.951C254.662 328.674 255.556 327.27 256.237 325.738L269.005 338.569C267.388 340.867 265.515 342.932 263.387 344.762C261.302 346.592 259.025 348.145 256.556 349.422C254.13 350.699 251.556 351.656 248.832 352.295C246.151 352.976 243.384 353.316 240.533 353.316C235.723 353.316 231.191 352.422 226.935 350.635C222.721 348.847 219.019 346.358 215.827 343.166C212.677 339.974 210.188 336.186 208.358 331.802C206.528 327.376 205.613 322.524 205.613 317.247C205.613 311.842 206.528 306.905 208.358 302.436C210.188 297.967 212.677 294.158 215.827 291.009C219.019 287.86 222.721 285.412 226.935 283.667C231.191 281.923 235.723 281.05 240.533 281.05C243.384 281.05 246.172 281.391 248.896 282.072C251.619 282.752 254.194 283.731 256.62 285.008C259.089 286.285 261.387 287.86 263.515 289.732C265.643 291.562 267.515 293.626 269.133 295.925L236.447 335.313ZM245.384 299.372C244.576 299.074 243.767 298.883 242.959 298.797C242.192 298.712 241.384 298.67 240.533 298.67C238.149 298.67 235.894 299.117 233.766 300.01C231.68 300.862 229.85 302.096 228.276 303.713C226.743 305.33 225.53 307.288 224.637 309.586C223.743 311.842 223.296 314.395 223.296 317.247C223.296 317.885 223.317 318.609 223.36 319.417C223.445 320.226 223.551 321.056 223.679 321.907C223.849 322.716 224.041 323.503 224.254 324.269C224.466 325.035 224.743 325.716 225.084 326.312L245.384 299.372ZM315.845 352.039H276.009V334.675H315.845C317.036 334.675 318.058 334.249 318.909 333.398C319.76 332.547 320.186 331.526 320.186 330.334C320.186 329.1 319.76 328.291 318.909 327.908C318.058 327.525 317.036 327.334 315.845 327.334H297.714C294.693 327.334 291.862 326.759 289.224 325.61C286.585 324.461 284.287 322.907 282.329 320.95C280.371 318.949 278.818 316.63 277.669 313.991C276.562 311.352 276.009 308.522 276.009 305.501C276.009 302.479 276.562 299.649 277.669 297.01C278.818 294.371 280.371 292.073 282.329 290.115C284.287 288.158 286.585 286.625 289.224 285.519C291.862 284.37 294.693 283.795 297.714 283.795H333.018V301.159H297.714C296.523 301.159 295.501 301.585 294.65 302.436C293.799 303.287 293.373 304.309 293.373 305.501C293.373 306.735 293.799 307.799 294.65 308.692C295.501 309.544 296.523 309.969 297.714 309.969H315.845C318.824 309.969 321.633 310.48 324.272 311.501C326.91 312.48 329.208 313.863 331.166 315.651C333.124 317.438 334.677 319.588 335.826 322.099C336.976 324.61 337.55 327.355 337.55 330.334C337.55 333.356 336.976 336.186 335.826 338.825C334.677 341.421 333.124 343.719 331.166 345.719C329.208 347.677 326.91 349.23 324.272 350.38C321.633 351.486 318.824 352.039 315.845 352.039ZM381.517 352.039C377.304 352.039 373.346 351.252 369.643 349.677C365.94 348.06 362.685 345.868 359.876 343.102C357.109 340.293 354.917 337.037 353.3 333.334C351.725 329.632 350.938 325.674 350.938 321.46V301.159H342.448V283.795H350.938V256.472H368.302V283.795H394.732V301.159H368.302V321.46C368.302 323.29 368.643 325.014 369.324 326.631C370.005 328.206 370.941 329.589 372.133 330.781C373.324 331.973 374.729 332.93 376.346 333.654C377.963 334.335 379.687 334.675 381.517 334.675H394.732V352.039H381.517Z" fill="#FFD900"/>
</svg>
